<?xml version="1.0" encoding="iso-8859-1"?>
<!-- Generator: Adobe Illustrator 21.0.0, SVG Export Plug-In . SVG Version: 6.00 Build 0)  -->
<svg version="1.1" id="Capa_1" xmlns="http://www.w3.org/2000/svg" xmlns:xlink="http://www.w3.org/1999/xlink" x="0px" y="0px"
	 viewBox="0 0 512 512" style="enable-background:new 0 0 512 512;" xml:space="preserve">
<g>
	<g>
		<path d="M485.547,251.733h-58.88v-153.6C426.638,74.581,407.552,55.495,384,55.467H128c-23.552,0.028-42.638,19.114-42.667,42.667
			v51.2H38.519C17.255,149.357,0.023,166.589,0,187.853v230.161c0.023,21.264,17.255,38.496,38.519,38.519h136.294
			c16.24-0.049,30.7-10.294,36.13-25.6H358.4c4.713,0,8.533-3.82,8.533-8.533v-17.067c0-14.138-11.462-25.6-25.6-25.6h-25.6V345.6
			H384v84.48c0,14.61,11.844,26.453,26.453,26.453h75.093c14.61,0,26.453-11.844,26.453-26.453V278.187
			C512,263.577,500.156,251.733,485.547,251.733z M196.267,418.014c-0.009,11.844-9.609,21.443-21.453,21.453H38.519
			c-11.844-0.009-21.443-9.609-21.453-21.453v-4.147h179.2V418.014z M196.267,396.8h-179.2V209.067h179.2V396.8z M196.267,192
			h-179.2v-4.147c0.009-11.844,9.609-21.443,21.453-21.453h136.294c11.844,0.009,21.443,9.609,21.453,21.453V192z M341.333,396.8
			c4.713,0,8.533,3.821,8.533,8.533v8.533H213.333V396.8H341.333z M213.333,379.733V345.6h85.333v34.133H213.333z M384,328.533
			h-76.8h-93.867v-25.6H384V328.533z M384,278.187v7.68H213.333v-98.014c-0.024-21.264-17.256-38.496-38.519-38.519H102.4v-51.2
			c0-14.138,11.461-25.6,25.6-25.6h256c14.138,0,25.6,11.461,25.6,25.6v153.685C395.358,252.278,384.039,263.937,384,278.187z
			 M494.933,430.08c0,5.184-4.203,9.387-9.387,9.387h-75.093c-5.184,0-9.387-4.203-9.387-9.387v-7.68h93.867V430.08z
			 M494.933,405.333h-93.867v-102.4h93.867V405.333z M494.933,285.867h-93.867v-7.68c0-5.184,4.203-9.387,9.387-9.387h75.093
			c5.184,0,9.387,4.203,9.387,9.387V285.867z"/>
	</g>
</g>
<g>
</g>
<g>
</g>
<g>
</g>
<g>
</g>
<g>
</g>
<g>
</g>
<g>
</g>
<g>
</g>
<g>
</g>
<g>
</g>
<g>
</g>
<g>
</g>
<g>
</g>
<g>
</g>
<g>
</g>
</svg>
