<svg id="Capa_1" enable-background="new 0 0 512 512" height="512" viewBox="0 0 512 512" width="512" xmlns="http://www.w3.org/2000/svg"><g id="XMLID_1377_"><path id="XMLID_1387_" d="m435.751 105.438h-74.126v-39.125c0-28.26-22.991-51.251-51.251-51.251h-108.748c-28.26 0-51.251 22.991-51.251 51.251v39.124h-74.126c-42.044.001-76.249 34.206-76.249 76.25v239.002c0 42.044 34.205 76.249 76.249 76.249h359.502c42.044 0 76.249-34.205 76.249-76.249v-239.002c0-42.044-34.205-76.249-76.249-76.249zm-255.376-39.125c0-11.718 9.533-21.251 21.251-21.251h108.748c11.718 0 21.251 9.533 21.251 21.251v39.124h-151.25zm-150.375 354.375v-239.001c0-20.252 13.09-37.493 31.249-43.738v326.479c-18.159-6.247-31.249-23.488-31.249-43.74zm61.249 46.25v-331.5h329.502v331.5zm390.751-46.25c0 20.252-13.09 37.493-31.249 43.738v-326.478c18.159 6.246 31.249 23.487 31.249 43.739z"/><path id="XMLID_1393_" d="m346.375 256.062h-45.25v-45.25c0-8.284-6.716-15-15-15h-60.25c-8.284 0-15 6.716-15 15v45.25h-45.25c-8.284 0-15 6.716-15 15v60.25c0 8.284 6.716 15 15 15h45.25v45.25c0 8.284 6.716 15 15 15h60.25c8.284 0 15-6.716 15-15v-45.25h45.25c8.284 0 15-6.716 15-15v-60.25c0-8.284-6.716-15-15-15zm-15 60.25h-45.25c-8.284 0-15 6.716-15 15v45.25h-30.25v-45.25c0-8.284-6.716-15-15-15h-45.25v-30.25h45.25c8.284 0 15-6.716 15-15v-45.25h30.25v45.25c0 8.284 6.716 15 15 15h45.25z"/></g></svg>