<svg id="Capa_1" enable-background="new 0 0 512 512" height="512" viewBox="0 0 512 512" width="512" xmlns="http://www.w3.org/2000/svg"><g><g><path d="m485.344 458.604h-7.501v-230.62c0-10.483-8.529-19.012-19.013-19.012h-136.09v-183.444c0-14.03-11.415-25.445-25.445-25.445h-237.692c-14.03 0-25.445 11.415-25.445 25.445v433.075h-7.501c-14.699.001-26.657 11.959-26.657 26.658 0 14.698 11.958 26.656 26.656 26.656h458.688c14.698 0 26.656-11.958 26.656-26.656 0-14.699-11.958-26.657-26.656-26.657zm-436.187-433.076c0-5.76 4.686-10.445 10.445-10.445h237.692c5.76 0 10.445 4.686 10.445 10.445v183.444h-64.021c-10.484 0-19.014 8.528-19.014 19.012v172.483c0 4.143 3.357 7.5 7.5 7.5s7.5-3.357 7.5-7.5v-172.483c0-2.212 1.801-4.012 4.014-4.012h215.112c2.213 0 4.013 1.8 4.013 4.012v230.619h-223.138v-23.073c0-4.143-3.357-7.5-7.5-7.5s-7.5 3.357-7.5 7.5v23.073h-175.548zm436.187 471.389h-458.688c-6.428 0-11.656-5.229-11.656-11.656s5.229-11.657 11.656-11.657h458.688c6.428 0 11.656 5.229 11.656 11.657s-5.229 11.656-11.656 11.656z"/><path d="m117.329 45.787h-30.771c-8.195 0-14.862 6.667-14.862 14.862v30.771c0 8.195 6.667 14.862 14.862 14.862h30.771c8.195 0 14.862-6.667 14.862-14.862v-30.771c0-8.195-6.667-14.862-14.862-14.862zm-.138 45.496h-30.496v-30.496h30.496z"/><path d="m193.835 45.787h-30.772c-8.194 0-14.861 6.667-14.861 14.862v30.771c0 8.195 6.667 14.862 14.861 14.862h30.772c8.195 0 14.862-6.667 14.862-14.862v-30.771c0-8.195-6.667-14.862-14.862-14.862zm-.138 45.496h-30.496v-30.496h30.496z"/><path d="m239.567 106.283h30.772c8.195 0 14.862-6.667 14.862-14.862v-30.772c0-8.195-6.667-14.862-14.862-14.862h-30.772c-8.195 0-14.862 6.667-14.862 14.862v30.771c0 8.196 6.667 14.863 14.862 14.863zm.138-45.496h30.497v30.496h-30.497z"/><path d="m117.329 139.412h-30.771c-8.195 0-14.862 6.667-14.862 14.862v30.771c0 8.195 6.667 14.862 14.862 14.862h30.771c8.195 0 14.862-6.667 14.862-14.862v-30.771c0-8.195-6.667-14.862-14.862-14.862zm-.138 45.496h-30.496v-30.496h30.496z"/><path d="m193.835 139.412h-30.772c-8.194 0-14.861 6.667-14.861 14.862v30.771c0 8.195 6.667 14.862 14.861 14.862h30.772c8.195 0 14.862-6.667 14.862-14.862v-30.771c0-8.195-6.667-14.862-14.862-14.862zm-.138 45.496h-30.496v-30.496h30.496z"/><path d="m239.567 199.908h30.772c8.195 0 14.862-6.667 14.862-14.862v-30.771c0-8.195-6.667-14.862-14.862-14.862h-30.772c-8.195 0-14.862 6.667-14.862 14.862v30.771c0 8.195 6.667 14.862 14.862 14.862zm.138-45.496h30.497v30.496h-30.497z"/><path d="m117.329 233.036h-30.771c-8.195 0-14.862 6.667-14.862 14.862v30.771c0 8.195 6.667 14.862 14.862 14.862h30.771c8.195 0 14.862-6.667 14.862-14.862v-30.771c0-8.195-6.667-14.862-14.862-14.862zm-.138 45.496h-30.496v-30.496h30.496z"/><path d="m193.835 233.036h-30.772c-8.194 0-14.861 6.667-14.861 14.862v30.771c0 8.195 6.667 14.862 14.861 14.862h30.772c8.195 0 14.862-6.667 14.862-14.862v-30.771c0-8.195-6.667-14.862-14.862-14.862zm-.138 45.496h-30.496v-30.496h30.496z"/><path d="m117.329 326.661h-30.771c-8.195 0-14.862 6.667-14.862 14.861v30.772c0 8.195 6.667 14.862 14.862 14.862h30.771c8.195 0 14.862-6.667 14.862-14.862v-30.772c0-8.194-6.667-14.861-14.862-14.861zm-.138 45.496h-30.496v-30.496h30.496z"/><path d="m193.835 326.661h-30.772c-8.194 0-14.861 6.667-14.861 14.861v30.772c0 8.195 6.667 14.862 14.861 14.862h30.772c8.195 0 14.862-6.667 14.862-14.862v-30.772c0-8.194-6.667-14.861-14.862-14.861zm-.138 45.496h-30.496v-30.496h30.496z"/><path d="m270.159 302.88h29.141c7.067 0 12.816-5.749 12.816-12.815v-28.401c0-7.067-5.749-12.816-12.816-12.816h-29.141c-7.067 0-12.816 5.749-12.816 12.816v28.401c0 7.066 5.749 12.815 12.816 12.815zm2.184-39.033h24.773v24.033h-24.773z"/><path d="m270.159 364.189h29.141c7.067 0 12.816-5.749 12.816-12.816v-28.4c0-7.067-5.749-12.816-12.816-12.816h-29.141c-7.067 0-12.816 5.749-12.816 12.816v28.4c0 7.067 5.749 12.816 12.816 12.816zm2.184-39.033h24.773v24.033h-24.773z"/><path d="m270.159 425.499h29.141c7.067 0 12.816-5.749 12.816-12.816v-28.401c0-7.067-5.749-12.816-12.816-12.816h-29.141c-7.067 0-12.816 5.749-12.816 12.816v28.401c0 7.067 5.749 12.816 12.816 12.816zm2.184-39.034h24.773v24.034h-24.773z"/><path d="m336.703 302.88h29.142c7.067 0 12.816-5.749 12.816-12.815v-28.401c0-7.067-5.749-12.816-12.816-12.816h-29.142c-7.067 0-12.816 5.749-12.816 12.816v28.401c0 7.066 5.749 12.815 12.816 12.815zm2.184-39.033h24.774v24.033h-24.774z"/><path d="m336.703 364.189h29.142c7.067 0 12.816-5.749 12.816-12.816v-28.4c0-7.067-5.749-12.816-12.816-12.816h-29.142c-7.067 0-12.816 5.749-12.816 12.816v28.4c0 7.067 5.749 12.816 12.816 12.816zm2.184-39.033h24.774v24.033h-24.774z"/><path d="m336.703 425.499h29.142c7.067 0 12.816-5.749 12.816-12.816v-28.401c0-7.067-5.749-12.816-12.816-12.816h-29.142c-7.067 0-12.816 5.749-12.816 12.816v28.401c0 7.067 5.749 12.816 12.816 12.816zm2.184-39.034h24.774v24.034h-24.774z"/><path d="m403.248 302.88h29.142c7.067 0 12.816-5.749 12.816-12.815v-28.401c0-7.067-5.749-12.816-12.816-12.816h-29.142c-7.067 0-12.816 5.749-12.816 12.816v28.401c0 7.066 5.749 12.815 12.816 12.815zm2.184-39.033h24.774v24.033h-24.774z"/><path d="m403.248 364.189h29.142c7.067 0 12.816-5.749 12.816-12.816v-28.4c0-7.067-5.749-12.816-12.816-12.816h-29.142c-7.067 0-12.816 5.749-12.816 12.816v28.4c0 7.067 5.749 12.816 12.816 12.816zm2.184-39.033h24.774v24.033h-24.774z"/><path d="m403.248 425.499h29.142c7.067 0 12.816-5.749 12.816-12.816v-28.401c0-7.067-5.749-12.816-12.816-12.816h-29.142c-7.067 0-12.816 5.749-12.816 12.816v28.401c0 7.067 5.749 12.816 12.816 12.816zm2.184-39.034h24.774v24.034h-24.774z"/><path d="m409.222 173.787c5.141 3.754 12.053 3.756 17.195 0 12.97-9.473 44.086-35.442 52.868-71.912.97-4.027-1.509-8.078-5.536-9.048-4.028-.965-8.078 1.51-9.048 5.536-7.762 32.233-37.515 56.248-46.882 63.128-11.785-8.652-48.787-39.035-48.787-78.903 0-26.901 21.886-48.787 48.786-48.787 21.132 0 39.761 13.476 46.356 33.532 1.294 3.935 5.533 6.077 9.468 4.782 3.935-1.294 6.076-5.533 4.782-9.468-8.625-26.227-32.98-43.847-60.606-43.847-35.172 0-63.786 28.615-63.786 63.787 0 47.223 42.242 81.744 55.19 91.2z"/><path d="m417.818 47.112c-19.561 0-35.475 15.914-35.475 35.476s15.914 35.476 35.475 35.476c19.562 0 35.476-15.914 35.476-35.476s-15.914-35.476-35.476-35.476zm0 55.951c-11.29 0-20.475-9.186-20.475-20.476s9.185-20.476 20.475-20.476 20.476 9.186 20.476 20.476-9.186 20.476-20.476 20.476z"/></g></g></svg>