<?xml version="1.0" encoding="iso-8859-1"?>
<!-- Generator: Adobe Illustrator 19.0.0, SVG Export Plug-In . SVG Version: 6.00 Build 0)  -->
<svg version="1.1" id="Capa_1" xmlns="http://www.w3.org/2000/svg" xmlns:xlink="http://www.w3.org/1999/xlink" x="0px" y="0px"
	 viewBox="0 0 512 512" style="enable-background:new 0 0 512 512;" xml:space="preserve">
<g>
	<g>
		<path d="M505.316,6.671c-0.025-0.024-0.052-0.045-0.076-0.069C501.005,2.405,495.169,0,489.212,0h-0.03
			c-5.149,0-10.189,1.77-14.189,4.979c-54.449,43.49-109.099,88.38-162.438,133.42c-12.97,10.951-25.951,21.988-38.92,33.086
			L125.557,23.409c-14.622-14.62-38.412-14.618-53.033,0L2.197,93.737c-2.929,2.93-2.929,7.678,0,10.607
			c2.929,2.928,7.678,2.928,10.606,0L61.918,55.23l10.733,10.733l-49.114,49.114c-2.929,2.93-2.929,7.678,0,10.607
			c1.464,1.464,3.384,2.196,5.303,2.196c1.919,0,3.839-0.732,5.303-2.196L83.258,76.57l10.733,10.733l-49.115,49.114
			c-2.929,2.93-2.929,7.678,0,10.607c1.464,1.464,3.384,2.196,5.303,2.196s3.839-0.732,5.303-2.196l49.115-49.115l10.733,10.733
			l-49.114,49.114c-2.929,2.93-2.929,7.678,0,10.607c1.464,1.464,3.384,2.196,5.303,2.196c1.919,0,3.839-0.732,5.303-2.196
			l49.114-49.114l10.733,10.733l-49.114,49.114c-2.929,2.93-2.929,7.678,0,10.607c1.464,1.464,3.384,2.196,5.303,2.196
			s3.839-0.732,5.303-2.196l49.114-49.114l10.733,10.733l-49.114,49.114c-2.929,2.93-2.929,7.678,0,10.607
			c1.464,1.464,3.384,2.196,5.303,2.196s3.839-0.732,5.303-2.196l49.114-49.114l10.733,10.733l-49.114,49.114
			c-2.929,2.93-2.929,7.678,0,10.607c1.464,1.464,3.384,2.196,5.303,2.196s3.839-0.732,5.303-2.196l49.114-49.114l10.734,10.734
			l-49.114,49.114c-2.929,2.93-2.929,7.678,0,10.607c1.464,1.464,3.384,2.196,5.303,2.196c1.919,0,3.839-0.732,5.303-2.196
			l49.115-49.115l11.111,11.111c-23.029,20.055-45.939,40.229-68.591,60.428c-0.01,0-0.01,0-0.01,0.011
			c-6.729,5.985-14.069,12.879-21.31,19.409c-4.436,3.209-3.591,8.85-1.39,11.051c0,0,0,0.01,0.01,0.01
			c7.22,8.74,11.21,19.9,11.21,31.439c0,13.49-5.19,26.11-14.619,35.53c-0.095,0.095-22.522,22.523-22.62,22.62
			C72.47,429.593,15.033,406.818,15,359.55c0.02-28.697,23.197-52.399,52.479-52.42c15.949,0.01,30.839,7.11,40.849,19.46
			c2.715,3.346,7.7,3.708,10.86,0.84c0.04-0.03,0.07-0.06,0.11-0.1l0.07-0.061c3.513-3.158,3.265-8.849-0.66-11.66
			c-12.82-14.92-31.47-23.479-51.179-23.479h-0.1c-37.498,0-67.472,30.535-67.428,67.42c-0.033,27.794,16.952,52.344,42.079,62.55
			c14.92,6.042,31.264,6.458,46.028,1.725C74.036,467.601,106.787,512,152.307,512h0.08c37.196,0,67.51-30.112,67.469-67.46
			c0.02-17.75-6.82-34.5-19.23-47.181c0.007-0.008,15.314-17.409,15.314-17.409c27.02-30.067,53.747-60.271,80.15-90.548l11.3,11.3
			l-49.114,49.114c-2.929,2.93-2.929,7.678,0,10.607c1.465,1.464,3.385,2.196,5.304,2.196c1.919,0,3.839-0.732,5.304-2.196
			l49.114-49.114l10.733,10.733l-49.114,49.114c-2.929,2.93-2.929,7.678,0,10.607c1.465,1.464,3.385,2.196,5.304,2.196
			c1.919,0,3.839-0.732,5.304-2.196l49.114-49.114l10.732,10.732l-49.114,49.114c-2.929,2.93-2.929,7.678,0,10.607
			c1.465,1.464,3.385,2.196,5.304,2.196c1.919,0,3.839-0.732,5.304-2.196l49.114-49.114l10.732,10.732l-49.114,49.115
			c-2.929,2.93-2.929,7.678,0,10.607c1.465,1.464,3.385,2.196,5.304,2.196c1.919,0,3.839-0.732,5.304-2.196l49.114-49.115
			l10.733,10.733l-49.114,49.114c-2.929,2.93-2.929,7.678,0,10.607c1.465,1.464,3.385,2.196,5.304,2.196
			c1.919,0,3.839-0.732,5.304-2.196l49.114-49.114l10.732,10.732l-49.114,49.114c-2.929,2.93-2.929,7.678,0,10.607
			c1.465,1.464,3.385,2.196,5.304,2.196c1.919,0,3.839-0.732,5.304-2.196l49.114-49.114l10.732,10.732l-49.114,49.114
			c-2.929,2.93-2.929,7.678,0,10.607c1.465,1.464,3.385,2.196,5.304,2.196c1.919,0,3.839-0.732,5.304-2.196l49.114-49.114
			l10.732,10.732l-49.114,49.114c-2.929,2.93-2.929,7.678,0,10.607c1.465,1.464,3.385,2.196,5.304,2.196
			c1.919,0,3.839-0.732,5.304-2.196l54.41-54.411c0.002-0.002,0.005-0.005,0.008-0.007c0.003-0.002,0.005-0.005,0.007-0.008
			l15.902-15.902c7.083-7.083,10.984-16.5,10.984-26.517c0-10.017-3.901-19.434-10.983-26.517L340.352,238.205
			c57.504-67.082,113.25-134.367,166.663-201.215C514.263,27.919,513.531,14.885,505.316,6.671z M72.525,44.623l10.606-10.606
			c8.772-8.772,23.047-8.772,31.82,0l147.268,147.269c-9.501,8.162-18.994,16.346-28.468,24.565L72.525,44.623z M477.984,397.05
			c4.25,4.249,6.591,9.899,6.591,15.909s-2.341,11.66-6.591,15.909l-10.606,10.606C462.422,434.52,316.603,288.7,305.962,278.06
			c8.23-9.473,16.432-18.952,24.594-28.437L477.984,397.05z M208.956,365.264c-3.635-2.783-13.327-7.601-14.939-21.285
			c-0.45-3.779-3.64-6.62-7.43-6.62c-4.531,0-7.984,3.935-7.47,8.381c0.01,0,0.01,0,0.01,0c1.43,12.229,8.07,23.04,18.21,29.649
			c0.53,0.351,1.06,0.71,1.61,1.11c-5.202,5.935-9.496,10.932-14.42,16.37c-1.37,1.52-2.07,3.569-1.91,5.609
			c0.15,2.04,1.16,3.96,2.75,5.25c12.587,10.275,19.478,25.063,19.49,40.811c-0.021,28.904-23.306,52.44-52.499,52.46
			c-28.854-0.038-52.499-23.293-52.499-52.46c0.034-23.737,15.047-36.449,16.2-38.08l22.25-22.25
			c12.258-12.258,19.019-28.842,19.019-46.141c0.01-12.64-3.61-24.85-10.449-35.289c5.872-5.37,10.979-10.135,16.91-15.421
			l0.03-0.04C326.433,142.326,482.44,17.689,485.372,16.01c-2.011,2.011-294.635,294.509-295.985,296.03
			c-2.75,3.1-2.46,7.85,0.63,10.59c3.106,2.766,7.863,2.442,10.59-0.63c0.897-1.022,293.229-293.247,295.372-295.39
			C495.366,27.689,374.581,180.679,208.956,365.264z"/>
	</g>
</g>
<g>
	<g>
		<path d="M94.026,333.076c-23.657-23.656-64.022-6.61-64.02,26.511c0,10.011,3.903,19.426,10.99,26.512
			c7.311,7.31,16.911,10.963,26.515,10.963c9.601,0,19.205-3.655,26.515-10.963C108.663,371.465,108.665,347.711,94.026,333.076z
			 M83.421,375.491c-8.773,8.769-23.047,8.771-31.82,0c-14.05-14.049-4.212-38.387,15.91-38.387
			C87.691,337.105,97.407,361.507,83.421,375.491z"/>
	</g>
</g>
<g>
	<g>
		<path d="M152.361,407.051c-15.421,0-28.668,8.854-34.572,23.108c-5.933,14.324-2.845,29.995,8.058,40.896
			c7.242,7.24,16.571,11.036,26.205,11.036c4.867,0,9.813-0.97,14.603-2.954c14.313-5.93,23.205-19.186,23.205-34.595
			C189.859,423.87,173.038,407.051,152.361,407.051z M160.913,465.28c-6.71,2.778-16.659,2.969-24.462-4.832
			c-7.807-7.806-7.6-17.799-4.805-24.549c2.773-6.695,9.671-13.849,20.714-13.849c12.406,0,22.499,10.09,22.499,22.492
			C174.859,455.572,167.655,462.487,160.913,465.28z"/>
	</g>
</g>
<g>
</g>
<g>
</g>
<g>
</g>
<g>
</g>
<g>
</g>
<g>
</g>
<g>
</g>
<g>
</g>
<g>
</g>
<g>
</g>
<g>
</g>
<g>
</g>
<g>
</g>
<g>
</g>
<g>
</g>
</svg>
